0
SECTION
2
HEADER
9
$INSUNITS
70
4
0
ENDSEC
0
SECTION
2
ENTITIES
0
LWPOLYLINE
8
PROVISIONAL_STEEL
90
432
70
1
10
33.8706197
20
-2.9632953
10
33.9711642
20
-1.4000000
10
38.7747340
20
-1.4000000
10
38.7257021
20
-2.4000000
10
39.9279351
20
-2.4000000
10
39.9819797
20
-1.2005409
10
40.0000000
20
0.0000000
10
39.9819797
20
1.2005409
10
39.9279351
20
2.4000000
10
38.7257021
20
2.4000000
10
38.7747340
20
1.4000000
10
33.9711642
20
1.4000000
10
33.8706197
20
2.9632953
10
33.6981734
20
4.5202999
10
38.4287662
20
5.3544311
10
38.5541273
20
4.3611090
10
39.7380957
20
4.5698746
10
39.5830353
20
5.7604960
10
39.3923101
20
6.9459271
10
39.1660919
20
8.1250999
10
38.9045844
20
9.2969518
10
37.7206160
20
9.0881862
10
37.9425513
20
8.1118928
10
33.2119585
20
7.2777616
10
32.8414781
20
8.7998475
10
32.4012806
20
10.3032528
10
36.9151597
20
11.9461704
10
37.2111048
20
10.9897079
10
38.3408343
20
11.4008958
10
37.9813805
20
12.5465031
10
37.5877048
20
13.6808057
10
37.1601621
20
14.8027818
10
36.6991376
20
15.9114204
10
35.5694081
20
15.5002325
10
35.9575033
20
14.5773098
10
31.4436242
20
12.9343921
10
30.8144648
20
14.3690209
10
30.1198912
20
15.7731466
10
34.2799047
20
18.1749315
10
34.7374418
20
17.2843901
10
35.7786061
20
17.8855066
10
35.2256806
20
18.9512910
10
34.6410162
20
20.0000000
10
34.0251397
20
21.0306887
10
33.3786061
20
22.0424285
10
32.3374418
20
21.4413120
10
32.8799047
20
20.5998026
10
28.7198912
20
18.1980177
10
27.8511695
20
19.5015988
10
26.9233242
20
20.7637812
10
30.6030722
20
23.8514564
10
31.2082991
20
23.0538948
10
32.1292631
20
23.8266753
10
31.3996662
20
24.7802535
10
30.6417777
20
25.7115044
10
29.8562806
20
26.6195888
10
29.0438825
20
27.5036886
10
28.1229186
20
26.7309081
10
28.8032669
20
25.9963808
10
25.1235189
20
22.9087057
10
24.0416306
20
24.0416306
10
22.9087057
20
25.1235189
10
25.9963808
20
28.8032669
10
26.7309081
20
28.1229186
10
27.5036886
20
29.0438825
10
26.6195888
20
29.8562806
10
25.7115044
20
30.6417777
10
24.7802535
20
31.3996662
10
23.8266753
20
32.1292631
10
23.0538948
20
31.2082991
10
23.8514564
20
30.6030722
10
20.7637812
20
26.9233242
10
19.5015988
20
27.8511695
10
18.1980177
20
28.7198912
10
20.5998026
20
32.8799047
10
21.4413120
20
32.3374418
10
22.0424285
20
33.3786061
10
21.0306887
20
34.0251397
10
20.0000000
20
34.6410162
10
18.9512910
20
35.2256806
10
17.8855066
20
35.7786061
10
17.2843901
20
34.7374418
10
18.1749315
20
34.2799047
10
15.7731466
20
30.1198912
10
14.3690209
20
30.8144648
10
12.9343921
20
31.4436242
10
14.5773098
20
35.9575033
10
15.5002325
20
35.5694081
10
15.9114204
20
36.6991376
10
14.8027818
20
37.1601621
10
13.6808057
20
37.5877048
10
12.5465031
20
37.9813805
10
11.4008958
20
38.3408343
10
10.9897079
20
37.2111048
10
11.9461704
20
36.9151597
10
10.3032528
20
32.4012806
10
8.7998475
20
32.8414781
10
7.2777616
20
33.2119585
10
8.1118928
20
37.9425513
10
9.0881862
20
37.7206160
10
9.2969518
20
38.9045844
10
8.1250999
20
39.1660919
10
6.9459271
20
39.3923101
10
5.7604960
20
39.5830353
10
4.5698746
20
39.7380957
10
4.3611090
20
38.5541273
10
5.3544311
20
38.4287662
10
4.5202999
20
33.6981734
10
2.9632953
20
33.8706197
10
1.4000000
20
33.9711642
10
1.4000000
20
38.7747340
10
2.4000000
20
38.7257021
10
2.4000000
20
39.9279351
10
1.2005409
20
39.9819797
10
0.0000000
20
40.0000000
10
-1.2005409
20
39.9819797
10
-2.4000000
20
39.9279351
10
-2.4000000
20
38.7257021
10
-1.4000000
20
38.7747340
10
-1.4000000
20
33.9711642
10
-2.9632953
20
33.8706197
10
-4.5202999
20
33.6981734
10
-5.3544311
20
38.4287662
10
-4.3611090
20
38.5541273
10
-4.5698746
20
39.7380957
10
-5.7604960
20
39.5830353
10
-6.9459271
20
39.3923101
10
-8.1250999
20
39.1660919
10
-9.2969518
20
38.9045844
10
-9.0881862
20
37.7206160
10
-8.1118928
20
37.9425513
10
-7.2777616
20
33.2119585
10
-8.7998475
20
32.8414781
10
-10.3032528
20
32.4012806
10
-11.9461704
20
36.9151597
10
-10.9897079
20
37.2111048
10
-11.4008958
20
38.3408343
10
-12.5465031
20
37.9813805
10
-13.6808057
20
37.5877048
10
-14.8027818
20
37.1601621
10
-15.9114204
20
36.6991376
10
-15.5002325
20
35.5694081
10
-14.5773098
20
35.9575033
10
-12.9343921
20
31.4436242
10
-14.3690209
20
30.8144648
10
-15.7731466
20
30.1198912
10
-18.1749315
20
34.2799047
10
-17.2843901
20
34.7374418
10
-17.8855066
20
35.7786061
10
-18.9512910
20
35.2256806
10
-20.0000000
20
34.6410162
10
-21.0306887
20
34.0251397
10
-22.0424285
20
33.3786061
10
-21.4413120
20
32.3374418
10
-20.5998026
20
32.8799047
10
-18.1980177
20
28.7198912
10
-19.5015988
20
27.8511695
10
-20.7637812
20
26.9233242
10
-23.8514564
20
30.6030722
10
-23.0538948
20
31.2082991
10
-23.8266753
20
32.1292631
10
-24.7802535
20
31.3996662
10
-25.7115044
20
30.6417777
10
-26.6195888
20
29.8562806
10
-27.5036886
20
29.0438825
10
-26.7309081
20
28.1229186
10
-25.9963808
20
28.8032669
10
-22.9087057
20
25.1235189
10
-24.0416306
20
24.0416306
10
-25.1235189
20
22.9087057
10
-28.8032669
20
25.9963808
10
-28.1229186
20
26.7309081
10
-29.0438825
20
27.5036886
10
-29.8562806
20
26.6195888
10
-30.6417777
20
25.7115044
10
-31.3996662
20
24.7802535
10
-32.1292631
20
23.8266753
10
-31.2082991
20
23.0538948
10
-30.6030722
20
23.8514564
10
-26.9233242
20
20.7637812
10
-27.8511695
20
19.5015988
10
-28.7198912
20
18.1980177
10
-32.8799047
20
20.5998026
10
-32.3374418
20
21.4413120
10
-33.3786061
20
22.0424285
10
-34.0251397
20
21.0306887
10
-34.6410162
20
20.0000000
10
-35.2256806
20
18.9512910
10
-35.7786061
20
17.8855066
10
-34.7374418
20
17.2843901
10
-34.2799047
20
18.1749315
10
-30.1198912
20
15.7731466
10
-30.8144648
20
14.3690209
10
-31.4436242
20
12.9343921
10
-35.9575033
20
14.5773098
10
-35.5694081
20
15.5002325
10
-36.6991376
20
15.9114204
10
-37.1601621
20
14.8027818
10
-37.5877048
20
13.6808057
10
-37.9813805
20
12.5465031
10
-38.3408343
20
11.4008958
10
-37.2111048
20
10.9897079
10
-36.9151597
20
11.9461704
10
-32.4012806
20
10.3032528
10
-32.8414781
20
8.7998475
10
-33.2119585
20
7.2777616
10
-37.9425513
20
8.1118928
10
-37.7206160
20
9.0881862
10
-38.9045844
20
9.2969518
10
-39.1660919
20
8.1250999
10
-39.3923101
20
6.9459271
10
-39.5830353
20
5.7604960
10
-39.7380957
20
4.5698746
10
-38.5541273
20
4.3611090
10
-38.4287662
20
5.3544311
10
-33.6981734
20
4.5202999
10
-33.8706197
20
2.9632953
10
-33.9711642
20
1.4000000
10
-38.7747340
20
1.4000000
10
-38.7257021
20
2.4000000
10
-39.9279351
20
2.4000000
10
-39.9819797
20
1.2005409
10
-40.0000000
20
0.0000000
10
-39.9819797
20
-1.2005409
10
-39.9279351
20
-2.4000000
10
-38.7257021
20
-2.4000000
10
-38.7747340
20
-1.4000000
10
-33.9711642
20
-1.4000000
10
-33.8706197
20
-2.9632953
10
-33.6981734
20
-4.5202999
10
-38.4287662
20
-5.3544311
10
-38.5541273
20
-4.3611090
10
-39.7380957
20
-4.5698746
10
-39.5830353
20
-5.7604960
10
-39.3923101
20
-6.9459271
10
-39.1660919
20
-8.1250999
10
-38.9045844
20
-9.2969518
10
-37.7206160
20
-9.0881862
10
-37.9425513
20
-8.1118928
10
-33.2119585
20
-7.2777616
10
-32.8414781
20
-8.7998475
10
-32.4012806
20
-10.3032528
10
-36.9151597
20
-11.9461704
10
-37.2111048
20
-10.9897079
10
-38.3408343
20
-11.4008958
10
-37.9813805
20
-12.5465031
10
-37.5877048
20
-13.6808057
10
-37.1601621
20
-14.8027818
10
-36.6991376
20
-15.9114204
10
-35.5694081
20
-15.5002325
10
-35.9575033
20
-14.5773098
10
-31.4436242
20
-12.9343921
10
-30.8144648
20
-14.3690209
10
-30.1198912
20
-15.7731466
10
-34.2799047
20
-18.1749315
10
-34.7374418
20
-17.2843901
10
-35.7786061
20
-17.8855066
10
-35.2256806
20
-18.9512910
10
-34.6410162
20
-20.0000000
10
-34.0251397
20
-21.0306887
10
-33.3786061
20
-22.0424285
10
-32.3374418
20
-21.4413120
10
-32.8799047
20
-20.5998026
10
-28.7198912
20
-18.1980177
10
-27.8511695
20
-19.5015988
10
-26.9233242
20
-20.7637812
10
-30.6030722
20
-23.8514564
10
-31.2082991
20
-23.0538948
10
-32.1292631
20
-23.8266753
10
-31.3996662
20
-24.7802535
10
-30.6417777
20
-25.7115044
10
-29.8562806
20
-26.6195888
10
-29.0438825
20
-27.5036886
10
-28.1229186
20
-26.7309081
10
-28.8032669
20
-25.9963808
10
-25.1235189
20
-22.9087057
10
-24.0416306
20
-24.0416306
10
-22.9087057
20
-25.1235189
10
-25.9963808
20
-28.8032669
10
-26.7309081
20
-28.1229186
10
-27.5036886
20
-29.0438825
10
-26.6195888
20
-29.8562806
10
-25.7115044
20
-30.6417777
10
-24.7802535
20
-31.3996662
10
-23.8266753
20
-32.1292631
10
-23.0538948
20
-31.2082991
10
-23.8514564
20
-30.6030722
10
-20.7637812
20
-26.9233242
10
-19.5015988
20
-27.8511695
10
-18.1980177
20
-28.7198912
10
-20.5998026
20
-32.8799047
10
-21.4413120
20
-32.3374418
10
-22.0424285
20
-33.3786061
10
-21.0306887
20
-34.0251397
10
-20.0000000
20
-34.6410162
10
-18.9512910
20
-35.2256806
10
-17.8855066
20
-35.7786061
10
-17.2843901
20
-34.7374418
10
-18.1749315
20
-34.2799047
10
-15.7731466
20
-30.1198912
10
-14.3690209
20
-30.8144648
10
-12.9343921
20
-31.4436242
10
-14.5773098
20
-35.9575033
10
-15.5002325
20
-35.5694081
10
-15.9114204
20
-36.6991376
10
-14.8027818
20
-37.1601621
10
-13.6808057
20
-37.5877048
10
-12.5465031
20
-37.9813805
10
-11.4008958
20
-38.3408343
10
-10.9897079
20
-37.2111048
10
-11.9461704
20
-36.9151597
10
-10.3032528
20
-32.4012806
10
-8.7998475
20
-32.8414781
10
-7.2777616
20
-33.2119585
10
-8.1118928
20
-37.9425513
10
-9.0881862
20
-37.7206160
10
-9.2969518
20
-38.9045844
10
-8.1250999
20
-39.1660919
10
-6.9459271
20
-39.3923101
10
-5.7604960
20
-39.5830353
10
-4.5698746
20
-39.7380957
10
-4.3611090
20
-38.5541273
10
-5.3544311
20
-38.4287662
10
-4.5202999
20
-33.6981734
10
-2.9632953
20
-33.8706197
10
-1.4000000
20
-33.9711642
10
-1.4000000
20
-38.7747340
10
-2.4000000
20
-38.7257021
10
-2.4000000
20
-39.9279351
10
-1.2005409
20
-39.9819797
10
-0.0000000
20
-40.0000000
10
1.2005409
20
-39.9819797
10
2.4000000
20
-39.9279351
10
2.4000000
20
-38.7257021
10
1.4000000
20
-38.7747340
10
1.4000000
20
-33.9711642
10
2.9632953
20
-33.8706197
10
4.5202999
20
-33.6981734
10
5.3544311
20
-38.4287662
10
4.3611090
20
-38.5541273
10
4.5698746
20
-39.7380957
10
5.7604960
20
-39.5830353
10
6.9459271
20
-39.3923101
10
8.1250999
20
-39.1660919
10
9.2969518
20
-38.9045844
10
9.0881862
20
-37.7206160
10
8.1118928
20
-37.9425513
10
7.2777616
20
-33.2119585
10
8.7998475
20
-32.8414781
10
10.3032528
20
-32.4012806
10
11.9461704
20
-36.9151597
10
10.9897079
20
-37.2111048
10
11.4008958
20
-38.3408343
10
12.5465031
20
-37.9813805
10
13.6808057
20
-37.5877048
10
14.8027818
20
-37.1601621
10
15.9114204
20
-36.6991376
10
15.5002325
20
-35.5694081
10
14.5773098
20
-35.9575033
10
12.9343921
20
-31.4436242
10
14.3690209
20
-30.8144648
10
15.7731466
20
-30.1198912
10
18.1749315
20
-34.2799047
10
17.2843901
20
-34.7374418
10
17.8855066
20
-35.7786061
10
18.9512910
20
-35.2256806
10
20.0000000
20
-34.6410162
10
21.0306887
20
-34.0251397
10
22.0424285
20
-33.3786061
10
21.4413120
20
-32.3374418
10
20.5998026
20
-32.8799047
10
18.1980177
20
-28.7198912
10
19.5015988
20
-27.8511695
10
20.7637812
20
-26.9233242
10
23.8514564
20
-30.6030722
10
23.0538948
20
-31.2082991
10
23.8266753
20
-32.1292631
10
24.7802535
20
-31.3996662
10
25.7115044
20
-30.6417777
10
26.6195888
20
-29.8562806
10
27.5036886
20
-29.0438825
10
26.7309081
20
-28.1229186
10
25.9963808
20
-28.8032669
10
22.9087057
20
-25.1235189
10
24.0416306
20
-24.0416306
10
25.1235189
20
-22.9087057
10
28.8032669
20
-25.9963808
10
28.1229186
20
-26.7309081
10
29.0438825
20
-27.5036886
10
29.8562806
20
-26.6195888
10
30.6417777
20
-25.7115044
10
31.3996662
20
-24.7802535
10
32.1292631
20
-23.8266753
10
31.2082991
20
-23.0538948
10
30.6030722
20
-23.8514564
10
26.9233242
20
-20.7637812
10
27.8511695
20
-19.5015988
10
28.7198912
20
-18.1980177
10
32.8799047
20
-20.5998026
10
32.3374418
20
-21.4413120
10
33.3786061
20
-22.0424285
10
34.0251397
20
-21.0306887
10
34.6410162
20
-20.0000000
10
35.2256806
20
-18.9512910
10
35.7786061
20
-17.8855066
10
34.7374418
20
-17.2843901
10
34.2799047
20
-18.1749315
10
30.1198912
20
-15.7731466
10
30.8144648
20
-14.3690209
10
31.4436242
20
-12.9343921
10
35.9575033
20
-14.5773098
10
35.5694081
20
-15.5002325
10
36.6991376
20
-15.9114204
10
37.1601621
20
-14.8027818
10
37.5877048
20
-13.6808057
10
37.9813805
20
-12.5465031
10
38.3408343
20
-11.4008958
10
37.2111048
20
-10.9897079
10
36.9151597
20
-11.9461704
10
32.4012806
20
-10.3032528
10
32.8414781
20
-8.7998475
10
33.2119585
20
-7.2777616
10
37.9425513
20
-8.1118928
10
37.7206160
20
-9.0881862
10
38.9045844
20
-9.2969518
10
39.1660919
20
-8.1250999
10
39.3923101
20
-6.9459271
10
39.5830353
20
-5.7604960
10
39.7380957
20
-4.5698746
10
38.5541273
20
-4.3611090
10
38.4287662
20
-5.3544311
10
33.6981734
20
-4.5202999
0
CIRCLE
8
PROVISIONAL_BORE
10
0
20
0
30
0
40
30.0000000
0
ENDSEC
0
EOF
